<?xml version="1.0" standalone="no"?><!DOCTYPE svg PUBLIC "-//W3C//DTD SVG 1.1//EN" "http://www.w3.org/Graphics/SVG/1.1/DTD/svg11.dtd"><svg t="1713874573289" class="icon" viewBox="0 0 1024 1024" version="1.1" xmlns="http://www.w3.org/2000/svg" p-id="5364" xmlns:xlink="http://www.w3.org/1999/xlink" width="200" height="200"><path d="M452.9 598.91L135.86 414.14c-15.67-9.06-34.85 1.52-36.52 19.29v315.4c0.78 8 5.27 15.18 12.16 19.25l317.02 186.64c16.36 9.65 36.65-2.43 36.65-21.64V620.66c0.01-9-4.65-17.26-12.27-21.75z m460.72-196.08a24.1 24.1 0 0 0-24.46-0.02L572.09 589.45c-7.56 4.43-12.27 12.73-12.27 21.69v321.93c0 8.89 4.71 17.17 12.27 21.61 7.56 4.48 16.85 4.48 24.48 0.03l317.02-186.64c7.59-4.49 12.24-12.7 12.24-21.64V424.44c0-8.89-4.65-17.15-12.21-21.61z m-50.19-116.34v-5.72c0-8.97-4.71-17.2-12.3-21.66L524.75 66.74c-7.57-4.48-16.88-4.48-24.44 0l-339.4 199.98c-7.56 4.46-12.22 12.72-12.22 21.64 0 8.94 4.65 17.21 12.22 21.66l330.07 194.3c7.56 4.43 16.82 4.43 24.41 0.05l335.67-196.2c7.64-4.48 12.37-12.72 12.37-21.68z" fill="#15181E" p-id="5365"></path></svg>