<svg xmlns="http://www.w3.org/2000/svg" xmlns:xlink="http://www.w3.org/1999/xlink" fill="none" version="1.1" width="345" height="345" viewBox="0 0 345 345"><defs><clipPath id="master_svg0_1_459"><rect x="0" y="0" width="345" height="345" rx="0"/></clipPath><clipPath id="master_svg1_1_460"><rect x="91" y="91" width="164" height="164" rx="0"/></clipPath></defs><g><g clip-path="url(#master_svg0_1_459)"><g><path d="M102.8228,18.585340000000002C105.5187,15.88951,109.175,14.375,112.9875,14.375C112.9875,14.375,232.013,14.375,232.013,14.375C235.825,14.375,239.482,15.88951,242.177,18.585340000000002C242.177,18.585340000000002,326.415,102.8228,326.415,102.8228C329.11,105.5187,330.625,109.175,330.625,112.9875C330.625,112.9875,330.625,232.013,330.625,232.013C330.625,235.825,329.11,239.482,326.415,242.177C326.415,242.177,242.177,326.415,242.177,326.415C239.482,329.11,235.825,330.625,232.013,330.625C232.013,330.625,112.9875,330.625,112.9875,330.625C109.175,330.625,105.5187,329.11,102.8228,326.415C102.8228,326.415,18.585340000000002,242.177,18.585340000000002,242.177C15.88951,239.482,14.375,235.825,14.375,232.013C14.375,232.013,14.375,112.9875,14.375,112.9875C14.375,109.175,15.88951,105.5187,18.585340000000002,102.8228C18.585340000000002,102.8228,102.8228,18.585340000000002,102.8228,18.585340000000002C102.8228,18.585340000000002,102.8228,18.585340000000002,102.8228,18.585340000000002ZM118.942,43.125C118.942,43.125,43.125,118.942,43.125,118.942C43.125,118.942,43.125,226.058,43.125,226.058C43.125,226.058,118.942,301.875,118.942,301.875C118.942,301.875,226.058,301.875,226.058,301.875C226.058,301.875,301.875,226.058,301.875,226.058C301.875,226.058,301.875,118.942,301.875,118.942C301.875,118.942,226.058,43.125,226.058,43.125C226.058,43.125,118.942,43.125,118.942,43.125C118.942,43.125,118.942,43.125,118.942,43.125Z" fill-rule="evenodd" fill="#000000" fill-opacity="1"/></g></g><g clip-path="url(#master_svg1_1_460)"><g><path d="M113.50144,120.33478350585938C116.17002,117.66619750585937,120.49663,117.66619750585937,123.1653,120.33478350585938C123.1653,120.33478350585938,164.1653,161.33474350585936,164.1653,161.33474350585936C166.8338,164.0033435058594,166.8338,168.32994350585938,164.1653,170.99864350585938C164.1653,170.99864350585938,123.1653,211.99854350585937,123.1653,211.99854350585937C120.49663,214.66694350585936,116.17002,214.66694350585936,113.50144,211.99854350585937C110.832854,209.33014350585938,110.832854,205.00324350585936,113.50144,202.33484350585937C113.50144,202.33484350585937,149.6696,166.16664350585938,149.6696,166.16664350585938C149.6696,166.16664350585938,113.50144,129.99864350585938,113.50144,129.99864350585938C110.832854,127.32997350585937,110.832854,123.00336350585937,113.50144,120.33478350585938C113.50144,120.33478350585938,113.50144,120.33478350585938,113.50144,120.33478350585938ZM166.1667,220.83334350585938C166.1667,217.05934350585937,169.2261,214.00004350585937,173,214.00004350585937C173,214.00004350585937,227.667,214.00004350585937,227.667,214.00004350585937C231.441,214.00004350585937,234.5,217.05934350585937,234.5,220.83334350585938C234.5,224.60734350585938,231.441,227.66634350585937,227.667,227.66634350585937C227.667,227.66634350585937,173,227.66634350585937,173,227.66634350585937C169.2261,227.66634350585937,166.1667,224.60734350585938,166.1667,220.83334350585938C166.1667,220.83334350585938,166.1667,220.83334350585938,166.1667,220.83334350585938Z" fill-rule="evenodd" fill="#000000" fill-opacity="1"/></g></g></g></svg>